<svg xmlns="http://www.w3.org/2000/svg" viewBox="0 0 1398.000000 376.000000" role="img" aria-label="The Grillfader" fill="currentColor"><title>The Grillfader</title>
<g transform="translate(0.000000,376.000000) scale(0.100000,-0.100000)"
fill="currentColor" stroke="none">
<path d="M4585 3349 c-49 -3 -107 -13 -128 -22 -58 -25 -132 -107 -157 -174
l-22 -58 1 -1165 c1 -641 4 -1187 8 -1215 12 -101 82 -195 178 -241 l50 -24
402 0 401 0 30 -25 c18 -15 42 -25 61 -25 l32 0 -3 994 c-2 547 -5 997 -8
1000 -9 8 -531 9 -538 1 -4 -4 2 -12 12 -19 11 -6 33 -23 50 -38 l31 -26 3
-678 c3 -761 8 -709 -73 -745 -55 -24 -82 -18 -126 27 l-34 35 -8 397 c-4 218
-6 646 -5 950 l3 554 28 24 28 24 595 0 595 0 67 62 c37 34 87 81 112 103 24
22 78 72 120 110 41 39 101 92 132 119 32 26 55 52 52 58 -6 10 -1728 8 -1889
-3z"/>
<path d="M11079 3208 c-90 -79 -195 -170 -233 -204 -104 -89 -102 -86 -65
-125 17 -18 35 -44 40 -57 5 -13 9 -114 9 -225 l0 -202 -194 -1 c-181 -1 -196
-2 -229 -23 -50 -30 -94 -84 -107 -128 -8 -27 -10 -274 -8 -833 l3 -795 23
-51 c43 -94 98 -128 224 -140 140 -12 225 31 277 141 21 45 41 52 41 14 0 -23
25 -75 49 -103 29 -34 60 -37 253 -30 l188 7 -44 44 c-35 34 -46 54 -51 86 -3
23 -5 655 -3 1405 2 749 0 1362 -4 1362 -4 0 -80 -64 -169 -142z m-280 -1189
c12 -11 26 -31 30 -42 9 -25 16 -475 13 -878 l-2 -267 -36 -17 c-28 -13 -42
-15 -60 -7 -50 23 -52 34 -55 387 -2 182 -3 432 -1 556 l2 227 29 31 c34 36
49 38 80 10z"/>
<path d="M8297 3199 c-86 -77 -194 -176 -240 -219 l-82 -79 27 -23 c60 -52 56
21 63 -1254 4 -643 9 -1172 12 -1177 2 -4 110 -7 239 -7 210 0 234 2 234 16 0
9 -17 31 -37 49 l-38 33 -3 1401 c-2 770 -7 1401 -10 1400 -4 0 -78 -63 -165
-140z"/>
<path d="M8705 3325 c-48 -24 -92 -81 -105 -137 -10 -39 -11 -357 -6 -1387 4
-735 7 -1342 6 -1348 0 -10 56 -13 250 -13 275 0 287 3 211 53 -33 22 -41 34
-46 69 -3 24 -5 363 -3 753 l3 710 65 3 c116 4 103 -11 185 207 21 55 45 110
53 122 19 30 18 30 -153 38 -76 3 -143 9 -147 11 -4 3 -8 131 -8 284 0 302 0
302 56 316 31 8 71 -18 86 -54 7 -18 8 -87 3 -204 -3 -98 -3 -178 2 -178 4 0
83 74 174 165 185 182 179 173 178 314 -1 170 -18 220 -89 269 -33 22 -37 22
-359 22 -270 0 -331 -3 -356 -15z"/>
<path d="M7777 3293 c-25 -21 -134 -117 -241 -213 l-196 -175 31 -24 c17 -13
36 -35 42 -50 9 -19 13 -333 17 -1206 l5 -1180 250 3 c157 2 250 7 250 13 0 5
-18 20 -40 32 l-40 23 -6 139 c-4 77 -7 710 -8 1408 0 724 -5 1267 -10 1267
-5 0 -29 -17 -54 -37z"/>
<path d="M6900 2852 c-31 -12 -56 -32 -81 -66 -41 -54 -49 -81 -49 -166 0 -71
19 -119 71 -175 90 -98 237 -79 320 41 28 41 33 58 37 125 3 59 0 89 -13 121
-45 116 -165 166 -285 120z"/>
<path d="M428 2793 l-28 -4 0 -310 c0 -231 3 -310 12 -307 6 2 16 22 23 44 38
129 130 214 230 214 l35 0 0 -923 0 -924 -23 -44 c-13 -24 -43 -59 -68 -78
-24 -18 -45 -37 -47 -42 -5 -12 655 -12 663 1 3 5 -7 16 -22 24 -15 8 -47 33
-70 56 -35 35 -43 49 -48 93 -3 29 -5 453 -3 942 l3 890 151 3 c141 2 153 1
175 -19 13 -11 29 -24 35 -27 16 -9 23 -442 24 -1299 l0 -673 210 0 c232 0
243 4 175 56 l-35 26 0 588 0 587 25 27 c31 33 74 34 103 3 l22 -23 0 -632 0
-632 205 0 c121 0 205 4 205 9 0 6 -17 26 -37 45 l-38 35 -5 689 -5 689 -37
56 c-41 61 -85 90 -155 101 -79 12 -201 -28 -241 -79 -40 -51 -42 -38 -40 223
l3 247 146 0 147 1 133 125 c74 68 162 148 197 178 34 29 62 57 62 62 0 9
-2025 11 -2082 2z"/>
<path d="M5977 2413 c-30 -27 -96 -85 -148 -130 -185 -163 -274 -246 -277
-259 -2 -7 6 -18 18 -24 12 -6 30 -26 40 -43 19 -31 20 -57 20 -765 0 -577 3
-734 13 -737 6 -2 123 -5 260 -7 172 -2 247 0 247 8 0 6 -17 22 -37 35 -23 14
-42 37 -48 55 -7 20 -10 287 -10 734 l0 702 29 24 c38 33 81 29 110 -9 20 -27
21 -43 24 -265 1 -130 5 -243 8 -251 3 -9 36 18 97 80 51 52 137 134 190 183
l97 89 0 191 c0 211 -6 237 -69 309 -45 51 -107 72 -211 71 -96 -1 -161 -23
-237 -81 l-43 -33 0 85 c0 49 -4 85 -10 85 -5 0 -34 -21 -63 -47z"/>
<path d="M12985 2450 c-4 -6 -77 -72 -163 -147 -86 -75 -184 -163 -217 -195
-33 -31 -69 -64 -80 -73 -20 -15 -20 -15 6 -38 62 -52 59 -16 59 -822 l0 -735
250 0 c202 0 250 3 250 13 0 8 -11 19 -24 25 -14 6 -33 23 -42 37 -16 24 -16
81 -12 741 5 695 6 716 25 742 31 41 67 50 101 26 45 -34 51 -69 51 -316 1
-177 4 -228 14 -228 7 0 94 82 195 183 l182 182 0 198 c0 175 -2 202 -19 235
-26 50 -52 76 -108 109 -44 26 -56 28 -143 27 -113 0 -162 -19 -246 -90 l-54
-46 0 91 c0 83 -8 109 -25 81z"/>
<path d="M7105 2364 c-39 -37 -144 -130 -235 -207 -91 -77 -166 -143 -168
-148 -2 -4 10 -15 26 -23 57 -30 56 -17 62 -811 l5 -730 248 -3 c216 -2 247 0
247 13 0 8 -15 24 -32 35 -18 10 -39 24 -45 30 -10 8 -13 213 -13 960 0 758
-3 950 -13 950 -7 0 -44 -30 -82 -66z"/>
<path d="M9496 2390 c-37 -12 -92 -64 -118 -113 -36 -71 -133 -368 -126 -388
2 -7 28 14 58 46 86 89 111 99 271 103 133 4 137 3 153 -19 10 -14 16 -44 16
-74 0 -57 29 -25 -305 -339 -82 -78 -166 -159 -187 -182 -68 -74 -68 -73 -68
-471 0 -340 1 -359 21 -399 26 -55 78 -100 129 -114 54 -15 213 -11 273 7 37
11 56 25 86 63 22 27 45 66 51 85 12 36 30 39 30 4 0 -11 12 -45 26 -76 38
-79 52 -83 279 -83 156 0 185 2 185 15 0 8 -13 24 -30 36 -16 12 -33 29 -37
38 -4 9 -10 396 -13 861 -5 790 -6 847 -23 878 -31 57 -87 111 -125 122 -45
12 -505 12 -546 0z m277 -1257 c-5 -264 -6 -279 -25 -295 -25 -22 -76 -23
-106 -2 -22 15 -22 19 -22 226 l0 210 71 74 c40 40 75 71 79 69 4 -2 5 -129 3
-282z"/>
<path d="M11620 2391 c-103 -12 -179 -65 -200 -139 -6 -24 -10 -324 -10 -853
l0 -815 29 -46 c16 -25 44 -56 62 -69 34 -24 35 -24 347 -27 384 -4 404 -1
477 72 88 89 114 171 115 372 0 93 -7 154 -19 154 -4 0 -26 -26 -49 -58 -60
-83 -88 -100 -179 -113 -84 -12 -251 -5 -294 12 -26 10 -51 54 -63 111 -9 39
14 88 66 139 85 85 284 275 380 362 143 130 138 115 138 453 0 153 -4 295 -10
313 -11 39 -49 82 -100 114 -34 21 -46 22 -330 23 -162 1 -324 -1 -360 -5z
m334 -367 c25 -26 26 -31 26 -135 l0 -108 -49 -58 c-57 -68 -101 -110 -101
-97 -1 5 0 87 0 182 1 189 5 205 55 228 40 18 38 18 69 -12z"/>
<path d="M2522 1999 c-20 -6 -44 -25 -62 -51 l-30 -41 0 -666 c0 -366 5 -684
10 -705 10 -44 34 -81 72 -109 34 -25 181 -33 430 -22 l177 7 41 32 c50 37 86
104 98 178 11 69 16 268 7 268 -4 0 -33 -28 -64 -62 -52 -56 -61 -62 -111 -69
-93 -13 -208 -10 -239 6 -35 18 -55 64 -55 128 0 55 -13 41 286 321 190 177
183 159 174 450 -7 257 -13 281 -76 324 -32 22 -38 22 -329 21 -163 0 -311 -5
-329 -10z m378 -294 c19 -23 25 -146 9 -176 -19 -34 -112 -147 -122 -148 -4
-1 -6 72 -5 162 l3 162 34 17 c36 18 56 14 81 -17z"/>
</g>
</svg>
