<svg xmlns="http://www.w3.org/2000/svg" viewBox="0 0 1902.000000 1153.000000" role="img" aria-label="The Grillfader" fill="currentColor"><title>The Grillfader</title>
<g transform="translate(0.000000,1153.000000) scale(0.100000,-0.100000)"
fill="currentColor" stroke="none">
<path d="M2330 11318 c-2115 -7 -2107 -7 -2119 -26 -4 -7 -6 -284 -3 -615 3
-458 7 -605 16 -615 19 -19 32 2 52 79 39 159 145 314 259 379 65 37 160 62
222 58 l48 -3 5 -1715 c3 -943 2 -1773 -1 -1845 -5 -96 -12 -144 -28 -185 -27
-70 -117 -172 -188 -212 -60 -34 -82 -62 -57 -72 21 -8 834 -8 1107 1 245 7
255 11 161 67 -58 35 -158 124 -192 173 -19 27 -25 52 -32 150 -11 148 -16
3592 -6 3616 8 16 33 17 319 17 l310 0 51 -48 c28 -27 58 -51 66 -54 13 -4 16
-184 22 -1419 4 -778 4 -1654 2 -1947 -4 -401 -2 -537 7 -548 17 -21 837 -21
845 0 9 24 -11 50 -74 95 l-59 43 -7 106 c-3 58 -6 584 -6 1170 0 1168 -4
1096 60 1157 73 70 202 34 230 -64 6 -23 10 -479 10 -1265 0 -896 3 -1233 11
-1242 9 -11 86 -14 405 -14 l394 0 0 25 c0 14 -10 33 -22 43 -12 9 -42 35 -67
58 l-44 41 -8 104 c-4 57 -8 644 -9 1304 -1 660 -5 1235 -9 1277 -16 149 -121
297 -256 360 -61 28 -82 33 -171 36 -176 7 -334 -46 -421 -142 -50 -54 -88
-82 -96 -69 -7 13 -9 957 -2 976 7 16 30 17 289 17 224 0 287 3 308 14 16 8
54 43 85 77 32 34 90 89 128 122 39 33 121 108 183 166 63 58 173 156 245 216
128 108 157 138 145 150 -10 10 -118 10 -2108 3z"/>
<path d="M4481 9727 c-47 -9 -63 -19 -112 -68 -72 -72 -87 -100 -99 -191 -6
-47 -6 -538 -1 -1363 9 -1386 7 -1343 59 -1427 31 -50 92 -105 137 -124 63
-26 231 -32 710 -25 501 8 475 4 581 98 54 47 73 72 109 147 59 123 73 211 77
496 3 203 1 225 -14 228 -11 2 -30 -17 -56 -55 -58 -85 -160 -179 -208 -191
-77 -20 -242 -30 -390 -24 -145 7 -152 8 -187 35 -46 35 -62 65 -76 142 -17
89 -14 165 7 200 28 46 69 85 557 539 239 222 317 310 336 378 7 28 9 190 7
512 -4 544 0 518 -106 624 -50 50 -69 62 -111 71 -68 14 -1143 13 -1220 -2z
m690 -560 c59 -39 69 -73 69 -238 l0 -146 -29 -39 c-58 -76 -218 -259 -227
-259 -10 0 -27 502 -20 579 6 56 25 82 81 107 54 24 86 23 126 -4z"/>
<path d="M735 6080 c-144 -16 -257 -78 -368 -200 -70 -78 -94 -120 -131 -230
l-29 -84 1 -2341 c1 -1487 5 -2366 11 -2410 28 -198 144 -368 319 -469 114
-66 101 -65 965 -66 l777 0 38 -24 c41 -26 123 -110 166 -169 27 -36 56 -49
56 -24 4 135 -3 1842 -10 2806 -9 1115 -12 1277 -25 1298 l-15 23 -513 0
c-535 0 -557 -2 -542 -42 3 -8 23 -23 44 -33 62 -28 115 -84 134 -142 16 -48
17 -164 20 -1360 l2 -1308 -28 -48 c-30 -51 -79 -88 -142 -107 -22 -7 -49 -16
-60 -20 -56 -20 -185 61 -227 144 -19 36 -22 65 -29 251 -4 116 -9 955 -10
1865 -2 1827 -7 1696 60 1753 18 15 42 28 54 28 12 1 429 3 927 4 498 1 1028
2 1178 3 l273 2 77 73 c216 202 759 693 862 777 27 23 41 40 36 48 -5 9 -438
12 -1909 11 -1046 -1 -1929 -5 -1962 -9z"/>
<path d="M14123 6067 c-12 -7 -75 -59 -140 -117 -65 -58 -147 -130 -183 -160
-36 -30 -126 -109 -200 -175 -74 -66 -206 -182 -292 -259 -87 -76 -158 -144
-158 -152 0 -8 13 -22 30 -32 38 -23 88 -92 114 -157 19 -47 20 -73 21 -438 0
-214 -2 -393 -5 -397 -3 -5 -176 -10 -385 -12 -433 -3 -409 1 -525 -94 -82
-68 -124 -123 -151 -201 -20 -57 -20 -79 -19 -1568 0 -961 4 -1545 11 -1605
16 -147 59 -249 142 -338 101 -106 189 -135 412 -134 271 0 388 66 488 274 27
57 48 88 58 88 17 0 29 -27 29 -65 0 -24 62 -147 96 -193 46 -60 69 -66 264
-64 96 0 267 3 379 6 112 3 210 6 218 6 26 0 12 29 -29 59 -54 40 -114 113
-130 159 -10 30 -13 593 -15 2806 -1 1523 -4 2770 -6 2772 -1 2 -12 -2 -24 -9z
m-887 -2639 c38 -26 69 -74 84 -129 18 -66 20 -2230 2 -2252 -21 -25 -101 -58
-142 -59 -51 -1 -89 24 -125 80 l-30 47 0 1075 c0 591 4 1093 8 1114 11 48 60
112 107 137 38 20 50 18 96 -13z"/>
<path d="M9295 6060 c-99 -4 -197 -12 -218 -19 -23 -7 -67 -41 -116 -89 -63
-62 -81 -87 -93 -127 -9 -27 -21 -69 -28 -91 -10 -33 -10 -458 -1 -2070 6
-1116 9 -2332 6 -2703 -4 -488 -2 -678 6 -688 9 -10 102 -13 498 -13 276 0
492 4 500 9 23 15 -1 57 -46 80 -21 10 -56 35 -79 55 l-41 35 -5 1188 c-3 653
-3 1328 0 1498 l7 310 145 0 c143 0 181 7 202 39 5 6 24 54 44 106 20 52 53
138 74 190 21 52 50 129 65 170 15 41 40 99 56 127 33 59 36 88 13 97 -9 3
-143 6 -299 6 -251 0 -284 2 -296 17 -12 13 -14 116 -14 572 0 640 -6 599 91
627 54 15 56 15 101 -8 91 -45 88 -26 91 -469 2 -300 5 -389 15 -389 19 0 677
660 683 686 3 12 4 152 2 311 -4 244 -7 295 -22 336 -25 66 -103 148 -173 183
l-58 28 -465 1 c-256 1 -546 -2 -645 -5z"/>
<path d="M8494 5993 c-43 -37 -103 -91 -134 -119 -30 -27 -71 -63 -91 -80 -79
-64 -281 -245 -413 -369 -76 -71 -163 -152 -192 -180 -56 -51 -67 -81 -36 -92
65 -24 125 -120 136 -219 8 -72 15 -1519 16 -3181 0 -1315 2 -1463 16 -1477
14 -14 71 -16 480 -16 404 0 465 2 470 15 12 30 -7 63 -58 101 -29 21 -60 54
-71 71 -18 32 -19 116 -24 2815 -3 1531 -9 2787 -13 2791 -4 5 -43 -22 -86
-60z"/>
<path d="M7270 6023 c-33 -23 -154 -129 -331 -289 -79 -73 -232 -209 -339
-303 -107 -94 -210 -184 -227 -199 -47 -42 -45 -49 27 -95 49 -31 86 -112 100
-214 7 -56 11 -782 11 -2344 0 -1304 4 -2272 10 -2285 l9 -24 494 0 c447 0
494 2 500 16 9 23 -6 38 -72 74 -31 18 -69 45 -83 60 l-26 29 -7 1043 c-4 574
-8 1140 -9 1258 -1 118 0 899 1 1735 1 836 2 1528 2 1538 0 22 -28 22 -60 0z"/>
<path d="M5550 5113 c-14 -2 -54 -14 -90 -26 -110 -36 -222 -162 -256 -289 -8
-30 -14 -100 -14 -164 0 -113 16 -179 65 -275 23 -44 125 -149 164 -168 58
-29 142 -44 222 -39 167 8 322 131 391 310 31 80 30 256 -2 358 -65 208 -265
330 -480 293z"/>
<path d="M3578 4183 c-75 -65 -173 -149 -219 -188 -45 -38 -141 -125 -212
-193 -72 -68 -175 -162 -230 -210 -174 -151 -179 -156 -172 -174 4 -9 26 -29
50 -43 30 -17 54 -43 77 -82 l33 -58 3 -1465 c2 -1148 5 -1467 15 -1477 9 -9
124 -13 437 -18 234 -3 457 -8 495 -10 113 -8 140 34 49 77 -50 23 -109 85
-130 133 -11 28 -14 264 -14 1434 -1 1554 -6 1430 67 1490 59 49 95 57 146 32
51 -25 82 -63 99 -123 8 -29 13 -193 17 -505 5 -364 9 -465 19 -475 11 -11 27
2 90 72 91 100 208 217 357 355 59 55 153 143 209 196 l101 97 3 351 c4 381 0
422 -48 518 -61 122 -156 208 -271 245 -90 29 -296 36 -402 14 -120 -25 -279
-108 -351 -185 -53 -55 -55 -48 -49 139 6 165 5 170 -14 170 -11 0 -81 -53
-155 -117z"/>
<path d="M17585 4247 c-47 -50 -143 -136 -365 -327 -186 -160 -226 -196 -315
-281 -49 -48 -119 -112 -154 -142 -36 -31 -68 -63 -73 -71 -9 -17 12 -42 66
-79 15 -10 39 -44 53 -75 l27 -57 7 -435 c3 -239 5 -897 2 -1462 -3 -771 -2
-1032 7 -1048 l12 -22 391 7 c216 4 437 8 492 9 87 1 100 3 103 19 2 11 -8 23
-30 35 -18 9 -54 38 -81 65 l-47 47 2 1443 c2 1060 6 1449 14 1467 7 14 27 42
46 64 29 34 40 39 87 44 40 4 63 0 87 -13 38 -20 80 -76 94 -126 6 -19 13
-236 16 -484 3 -247 7 -460 10 -472 2 -13 10 -23 16 -23 11 0 140 125 584 565
166 163 172 172 179 219 4 27 5 202 3 390 -6 390 -9 408 -96 514 -63 78 -85
95 -181 144 l-83 43 -142 5 c-156 6 -210 -1 -306 -37 -90 -34 -152 -74 -241
-154 -42 -38 -82 -69 -89 -69 -10 0 -12 37 -8 175 4 171 4 175 -16 175 -12 0
-43 -23 -71 -53z"/>
<path d="M5930 4177 c-44 -41 -88 -83 -96 -95 -13 -19 -376 -338 -457 -402
-18 -14 -83 -69 -146 -123 -63 -54 -127 -105 -142 -114 -48 -29 -48 -64 0 -81
40 -14 94 -72 109 -118 25 -72 32 -502 30 -1731 -2 -1186 -2 -1212 17 -1233
l19 -21 480 5 c311 3 483 9 490 16 17 17 -26 62 -92 95 -44 21 -66 39 -77 62
-13 27 -15 262 -15 1906 0 1032 -3 1882 -6 1891 -11 28 -32 18 -114 -57z"/>
<path d="M10820 4179 c-153 -8 -190 -15 -245 -49 -44 -27 -128 -119 -162 -177
-50 -85 -240 -647 -259 -765 -10 -57 21 -51 73 16 24 30 71 78 105 108 147
127 177 136 500 145 261 7 271 5 302 -56 20 -38 30 -120 22 -176 -8 -52 -48
-102 -175 -218 -42 -39 -191 -179 -331 -312 -140 -133 -289 -272 -330 -310
-118 -108 -218 -224 -253 -295 l-32 -65 -5 -655 c-3 -360 -2 -692 1 -738 8
-103 40 -171 123 -260 63 -67 82 -79 161 -107 115 -40 443 -34 579 11 89 30
212 171 258 296 11 32 26 57 32 55 6 -2 17 -23 24 -48 34 -119 49 -155 86
-212 69 -104 56 -101 502 -104 456 -3 443 -7 341 92 -79 76 -94 102 -102 181
-4 32 -8 781 -9 1664 -2 1260 -6 1614 -16 1645 -21 66 -90 177 -145 231 -86
83 -115 93 -332 103 -213 11 -499 11 -713 0z m375 -2526 c0 -619 4 -578 -66
-614 -75 -38 -198 -14 -231 44 -10 17 -13 112 -13 402 0 209 3 396 8 415 4 22
28 57 63 95 133 141 219 225 229 222 7 -3 10 -189 10 -564z"/>
<path d="M15025 4170 c-265 -10 -334 -32 -449 -145 -37 -37 -61 -72 -77 -112
-23 -57 -23 -63 -28 -638 -3 -319 -6 -1052 -5 -1630 0 -1191 -6 -1100 85
-1222 125 -167 122 -166 929 -161 587 3 596 3 649 25 132 54 245 169 321 328
61 128 70 193 70 530 0 244 -2 295 -15 305 -20 16 -27 10 -81 -71 -64 -96
-174 -206 -229 -230 -72 -32 -206 -42 -469 -35 -300 8 -308 10 -362 122 -26
54 -37 92 -41 143 -10 125 0 139 392 521 105 102 226 216 270 255 44 38 109
97 145 131 36 34 90 83 120 110 128 114 182 180 222 275 22 53 23 63 26 490 4
521 -5 695 -41 771 -29 64 -102 142 -179 191 -55 35 -61 36 -195 46 -147 12
-744 12 -1058 1z m527 -737 c62 -66 63 -68 60 -283 -4 -227 5 -203 -141 -373
-86 -98 -139 -147 -161 -147 -7 0 -8 107 -4 353 6 348 7 352 31 394 32 57 86
93 138 93 34 0 47 -6 77 -37z"/>
</g>
</svg>
