<svg xmlns="http://www.w3.org/2000/svg" viewBox="0 0 1902.000000 1284.000000" role="img" aria-label="The Grillfader — Est. 2015" fill="currentColor">
<title>The Grillfader</title>
<g transform="translate(0.000000,1284.000000) scale(0.100000,-0.100000)"
fill="currentColor" stroke="none">
<path d="M2330 12628 c-2115 -7 -2107 -7 -2119 -26 -4 -7 -6 -284 -3 -615 3
-458 7 -605 16 -615 19 -19 32 2 52 79 39 159 145 314 259 379 65 37 160 62
222 58 l48 -3 5 -1715 c3 -943 2 -1773 -1 -1845 -5 -96 -12 -144 -28 -185 -27
-70 -117 -172 -188 -212 -60 -34 -82 -62 -57 -72 21 -8 834 -8 1107 1 245 7
255 11 161 67 -58 35 -158 124 -192 173 -19 27 -25 52 -32 150 -11 148 -16
3592 -6 3616 8 16 33 17 319 17 l310 0 51 -48 c28 -27 58 -51 66 -54 13 -4 16
-184 22 -1419 4 -778 4 -1654 2 -1947 -4 -401 -2 -537 7 -548 17 -21 837 -21
845 0 9 24 -11 50 -74 95 l-59 43 -7 106 c-3 58 -6 584 -6 1170 0 1168 -4
1096 60 1157 73 70 202 34 230 -64 6 -23 10 -479 10 -1265 0 -896 3 -1233 11
-1242 9 -11 86 -14 405 -14 l394 0 0 25 c0 14 -10 33 -22 43 -12 9 -42 35 -67
58 l-44 41 -8 104 c-4 57 -8 644 -9 1304 -1 660 -5 1235 -9 1277 -16 149 -121
297 -256 360 -61 28 -82 33 -171 36 -176 7 -334 -46 -421 -142 -50 -54 -88
-82 -96 -69 -7 13 -9 957 -2 976 7 16 30 17 289 17 224 0 287 3 308 14 16 8
54 43 85 77 32 34 90 89 128 122 39 33 121 108 183 166 63 58 173 156 245 216
128 108 157 138 145 150 -10 10 -118 10 -2108 3z"/>
<path d="M4481 11037 c-47 -9 -63 -19 -112 -68 -72 -72 -87 -100 -99 -191 -6
-47 -6 -538 -1 -1363 9 -1386 7 -1343 59 -1427 31 -50 92 -105 137 -124 63
-26 231 -32 710 -25 501 8 475 4 581 98 54 47 73 72 109 147 59 123 73 211 77
496 3 203 1 225 -14 228 -11 2 -30 -17 -56 -55 -58 -85 -160 -179 -208 -191
-77 -20 -242 -30 -390 -24 -145 7 -152 8 -187 35 -46 35 -62 65 -76 142 -17
89 -14 165 7 200 28 46 69 85 557 539 239 222 317 310 336 378 7 28 9 190 7
512 -4 544 0 518 -106 624 -50 50 -69 62 -111 71 -68 14 -1143 13 -1220 -2z
m690 -560 c59 -39 69 -73 69 -238 l0 -146 -29 -39 c-58 -76 -218 -259 -227
-259 -10 0 -27 502 -20 579 6 56 25 82 81 107 54 24 86 23 126 -4z"/>
<path d="M735 7390 c-144 -16 -257 -78 -368 -200 -70 -78 -94 -120 -131 -230
l-29 -84 1 -2341 c1 -1487 5 -2366 11 -2410 28 -198 144 -368 319 -469 114
-66 101 -65 965 -66 l777 0 38 -24 c41 -26 123 -110 166 -169 27 -36 56 -49
56 -24 4 135 -3 1842 -10 2806 -9 1115 -12 1277 -25 1298 l-15 23 -513 0
c-535 0 -557 -2 -542 -42 3 -8 23 -23 44 -33 62 -28 115 -84 134 -142 16 -48
17 -164 20 -1360 l2 -1308 -28 -48 c-30 -51 -79 -88 -142 -107 -22 -7 -49 -16
-60 -20 -56 -20 -185 61 -227 144 -19 36 -22 65 -29 251 -4 116 -9 955 -10
1865 -2 1827 -7 1696 60 1753 18 15 42 28 54 28 12 1 429 3 927 4 498 1 1028
2 1178 3 l273 2 77 73 c216 202 759 693 862 777 27 23 41 40 36 48 -5 9 -438
12 -1909 11 -1046 -1 -1929 -5 -1962 -9z"/>
<path d="M14123 7377 c-12 -7 -75 -59 -140 -117 -65 -58 -147 -130 -183 -160
-36 -30 -126 -109 -200 -175 -74 -66 -206 -182 -292 -259 -87 -76 -158 -144
-158 -152 0 -8 13 -22 30 -32 38 -23 88 -92 114 -157 19 -47 20 -73 21 -438 0
-214 -2 -393 -5 -397 -3 -5 -176 -10 -385 -12 -433 -3 -409 1 -525 -94 -82
-68 -124 -123 -151 -201 -20 -57 -20 -79 -19 -1568 0 -961 4 -1545 11 -1605
16 -147 59 -249 142 -338 101 -106 189 -135 412 -134 271 0 388 66 488 274 27
57 48 88 58 88 17 0 29 -27 29 -65 0 -24 62 -147 96 -193 46 -60 69 -66 264
-64 96 0 267 3 379 6 112 3 210 6 218 6 26 0 12 29 -29 59 -54 40 -114 113
-130 159 -10 30 -13 593 -15 2806 -1 1523 -4 2770 -6 2772 -1 2 -12 -2 -24 -9z
m-887 -2639 c38 -26 69 -74 84 -129 18 -66 20 -2230 2 -2252 -21 -25 -101 -58
-142 -59 -51 -1 -89 24 -125 80 l-30 47 0 1075 c0 591 4 1093 8 1114 11 48 60
112 107 137 38 20 50 18 96 -13z"/>
<path d="M9295 7370 c-99 -4 -197 -12 -218 -19 -23 -7 -67 -41 -116 -89 -63
-62 -81 -87 -93 -127 -9 -27 -21 -69 -28 -91 -10 -33 -10 -458 -1 -2070 6
-1116 9 -2332 6 -2703 -4 -488 -2 -678 6 -688 9 -10 102 -13 498 -13 276 0
492 4 500 9 23 15 -1 57 -46 80 -21 10 -56 35 -79 55 l-41 35 -5 1188 c-3 653
-3 1328 0 1498 l7 310 145 0 c143 0 181 7 202 39 5 6 24 54 44 106 20 52 53
138 74 190 21 52 50 129 65 170 15 41 40 99 56 127 33 59 36 88 13 97 -9 3
-143 6 -299 6 -251 0 -284 2 -296 17 -12 13 -14 116 -14 572 0 640 -6 599 91
627 54 15 56 15 101 -8 91 -45 88 -26 91 -469 2 -300 5 -389 15 -389 19 0 677
660 683 686 3 12 4 152 2 311 -4 244 -7 295 -22 336 -25 66 -103 148 -173 183
l-58 28 -465 1 c-256 1 -546 -2 -645 -5z"/>
<path d="M8494 7303 c-43 -37 -103 -91 -134 -119 -30 -27 -71 -63 -91 -80 -79
-64 -281 -245 -413 -369 -76 -71 -163 -152 -192 -180 -56 -51 -67 -81 -36 -92
65 -24 125 -120 136 -219 8 -72 15 -1519 16 -3181 0 -1315 2 -1463 16 -1477
14 -14 71 -16 480 -16 404 0 465 2 470 15 12 30 -7 63 -58 101 -29 21 -60 54
-71 71 -18 32 -19 116 -24 2815 -3 1531 -9 2787 -13 2791 -4 5 -43 -22 -86
-60z"/>
<path d="M7270 7333 c-33 -23 -154 -129 -331 -289 -79 -73 -232 -209 -339
-303 -107 -94 -210 -184 -227 -199 -47 -42 -45 -49 27 -95 49 -31 86 -112 100
-214 7 -56 11 -782 11 -2344 0 -1304 4 -2272 10 -2285 l9 -24 494 0 c447 0
494 2 500 16 9 23 -6 38 -72 74 -31 18 -69 45 -83 60 l-26 29 -7 1043 c-4 574
-8 1140 -9 1258 -1 118 0 899 1 1735 1 836 2 1528 2 1538 0 22 -28 22 -60 0z"/>
<path d="M5550 6423 c-14 -2 -54 -14 -90 -26 -110 -36 -222 -162 -256 -289 -8
-30 -14 -100 -14 -164 0 -113 16 -179 65 -275 23 -44 125 -149 164 -168 58
-29 142 -44 222 -39 167 8 322 131 391 310 31 80 30 256 -2 358 -65 208 -265
330 -480 293z"/>
<path d="M3578 5493 c-75 -65 -173 -149 -219 -188 -45 -38 -141 -125 -212
-193 -72 -68 -175 -162 -230 -210 -174 -151 -179 -156 -172 -174 4 -9 26 -29
50 -43 30 -17 54 -43 77 -82 l33 -58 3 -1465 c2 -1148 5 -1467 15 -1477 9 -9
124 -13 437 -18 234 -3 457 -8 495 -10 113 -8 140 34 49 77 -50 23 -109 85
-130 133 -11 28 -14 264 -14 1434 -1 1554 -6 1430 67 1490 59 49 95 57 146 32
51 -25 82 -63 99 -123 8 -29 13 -193 17 -505 5 -364 9 -465 19 -475 11 -11 27
2 90 72 91 100 208 217 357 355 59 55 153 143 209 196 l101 97 3 351 c4 381 0
422 -48 518 -61 122 -156 208 -271 245 -90 29 -296 36 -402 14 -120 -25 -279
-108 -351 -185 -53 -55 -55 -48 -49 139 6 165 5 170 -14 170 -11 0 -81 -53
-155 -117z"/>
<path d="M17585 5557 c-47 -50 -143 -136 -365 -327 -186 -160 -226 -196 -315
-281 -49 -48 -119 -112 -154 -142 -36 -31 -68 -63 -73 -71 -9 -17 12 -42 66
-79 15 -10 39 -44 53 -75 l27 -57 7 -435 c3 -239 5 -897 2 -1462 -3 -771 -2
-1032 7 -1048 l12 -22 391 7 c216 4 437 8 492 9 87 1 100 3 103 19 2 11 -8 23
-30 35 -18 9 -54 38 -81 65 l-47 47 2 1443 c2 1060 6 1449 14 1467 7 14 27 42
46 64 29 34 40 39 87 44 40 4 63 0 87 -13 38 -20 80 -76 94 -126 6 -19 13
-236 16 -484 3 -247 7 -460 10 -472 2 -13 10 -23 16 -23 11 0 140 125 584 565
166 163 172 172 179 219 4 27 5 202 3 390 -6 390 -9 408 -96 514 -63 78 -85
95 -181 144 l-83 43 -142 5 c-156 6 -210 -1 -306 -37 -90 -34 -152 -74 -241
-154 -42 -38 -82 -69 -89 -69 -10 0 -12 37 -8 175 4 171 4 175 -16 175 -12 0
-43 -23 -71 -53z"/>
<path d="M5930 5487 c-44 -41 -88 -83 -96 -95 -13 -19 -376 -338 -457 -402
-18 -14 -83 -69 -146 -123 -63 -54 -127 -105 -142 -114 -48 -29 -48 -64 0 -81
40 -14 94 -72 109 -118 25 -72 32 -502 30 -1731 -2 -1186 -2 -1212 17 -1233
l19 -21 480 5 c311 3 483 9 490 16 17 17 -26 62 -92 95 -44 21 -66 39 -77 62
-13 27 -15 262 -15 1906 0 1032 -3 1882 -6 1891 -11 28 -32 18 -114 -57z"/>
<path d="M10820 5489 c-153 -8 -190 -15 -245 -49 -44 -27 -128 -119 -162 -177
-50 -85 -240 -647 -259 -765 -10 -57 21 -51 73 16 24 30 71 78 105 108 147
127 177 136 500 145 261 7 271 5 302 -56 20 -38 30 -120 22 -176 -8 -52 -48
-102 -175 -218 -42 -39 -191 -179 -331 -312 -140 -133 -289 -272 -330 -310
-118 -108 -218 -224 -253 -295 l-32 -65 -5 -655 c-3 -360 -2 -692 1 -738 8
-103 40 -171 123 -260 63 -67 82 -79 161 -107 115 -40 443 -34 579 11 89 30
212 171 258 296 11 32 26 57 32 55 6 -2 17 -23 24 -48 34 -119 49 -155 86
-212 69 -104 56 -101 502 -104 456 -3 443 -7 341 92 -79 76 -94 102 -102 181
-4 32 -8 781 -9 1664 -2 1260 -6 1614 -16 1645 -21 66 -90 177 -145 231 -86
83 -115 93 -332 103 -213 11 -499 11 -713 0z m375 -2526 c0 -619 4 -578 -66
-614 -75 -38 -198 -14 -231 44 -10 17 -13 112 -13 402 0 209 3 396 8 415 4 22
28 57 63 95 133 141 219 225 229 222 7 -3 10 -189 10 -564z"/>
<path d="M15025 5480 c-265 -10 -334 -32 -449 -145 -37 -37 -61 -72 -77 -112
-23 -57 -23 -63 -28 -638 -3 -319 -6 -1052 -5 -1630 0 -1191 -6 -1100 85
-1222 125 -167 122 -166 929 -161 587 3 596 3 649 25 132 54 245 169 321 328
61 128 70 193 70 530 0 244 -2 295 -15 305 -20 16 -27 10 -81 -71 -64 -96
-174 -206 -229 -230 -72 -32 -206 -42 -469 -35 -300 8 -308 10 -362 122 -26
54 -37 92 -41 143 -10 125 0 139 392 521 105 102 226 216 270 255 44 38 109
97 145 131 36 34 90 83 120 110 128 114 182 180 222 275 22 53 23 63 26 490 4
521 -5 695 -41 771 -29 64 -102 142 -179 191 -55 35 -61 36 -195 46 -147 12
-744 12 -1058 1z m527 -737 c62 -66 63 -68 60 -283 -4 -227 5 -203 -141 -373
-86 -98 -139 -147 -161 -147 -7 0 -8 107 -4 353 6 348 7 352 31 394 32 57 86
93 138 93 34 0 47 -6 77 -37z"/>
<path d="M8016 1197 c-19 -14 -19 -17 -4 -83 12 -52 18 -149 22 -399 5 -322 2
-375 -25 -442 -12 -29 -11 -35 4 -50 15 -15 36 -17 174 -14 134 2 162 6 199
24 40 19 44 19 68 4 13 -9 45 -21 71 -27 55 -12 95 2 140 49 30 32 30 34 30
144 0 124 -2 129 -95 257 -45 61 -55 106 -28 123 14 10 24 5 56 -26 47 -46 76
-48 98 -6 12 25 18 29 25 18 5 -8 8 -126 7 -270 -3 -299 -5 -292 80 -287 90 5
91 9 83 273 -4 121 -4 229 0 241 4 11 21 27 38 34 32 13 45 40 39 81 -3 22
-28 40 -70 53 -15 4 -18 17 -18 68 0 35 5 90 10 123 12 73 6 95 -25 95 -40 0
-69 -19 -95 -63 -34 -58 -40 -79 -47 -177 -3 -47 -7 -87 -9 -89 -2 -2 -9 8
-15 22 -14 32 -53 46 -140 54 -85 7 -156 -15 -198 -62 -32 -37 -47 -89 -36
-127 14 -46 77 -149 129 -211 60 -70 74 -101 56 -122 -20 -24 -57 -17 -93 15
-19 17 -41 30 -49 30 -8 0 -31 -18 -52 -39 -80 -82 -126 -59 -126 63 0 90 14
142 43 157 33 17 67 51 67 67 0 7 -18 31 -40 53 -42 42 -43 43 -60 162 -8 56
-9 82 -1 91 17 20 246 41 296 27 44 -12 105 -14 130 -5 37 15 62 128 33 151
-8 6 -132 13 -288 17 -151 4 -295 9 -320 12 -31 4 -51 1 -64 -9z"/>
<path d="M350 1164 c-57 -10 -71 -15 -90 -34 -19 -19 -20 -35 -20 -364 0 -317
1 -346 18 -366 29 -36 158 -43 652 -36 466 6 500 10 548 59 55 56 118 141 146
194 9 18 27 40 40 48 21 14 327 16 2942 15 1606 0 2956 -3 3000 -7 74 -5 83
-4 103 16 25 25 31 118 8 127 -24 9 -449 11 -3247 18 -1855 5 -2774 11 -2792
18 -16 6 -34 26 -46 52 -29 60 -123 177 -169 209 -73 50 -77 51 -588 53 -264
1 -491 0 -505 -2z m814 -100 c21 -8 20 -38 -1 -55 -13 -11 -82 -14 -365 -12
-225 1 -355 6 -368 13 -22 12 -27 46 -7 53 18 8 722 8 741 1z m9 -198 c4 -6 6
-20 5 -31 -3 -19 -12 -20 -345 -23 -188 -2 -357 1 -375 6 -36 9 -52 47 -26 64
20 13 731 -2 741 -16z m-9 -182 c49 -49 13 -54 -372 -54 -374 0 -383 1 -367
50 6 20 12 20 365 20 313 0 361 -2 374 -16z m32 -176 c14 -14 15 -20 4 -33
-11 -13 -58 -15 -394 -13 -358 3 -381 4 -384 21 -10 49 -19 48 383 45 336 -3
376 -5 391 -20z"/>
<path d="M9405 1163 c-11 -3 -26 -10 -33 -16 -42 -34 -82 -188 -63 -240 9 -24
15 -27 60 -27 48 0 70 12 129 68 20 19 32 5 32 -37 0 -26 -12 -58 -40 -104
-22 -36 -40 -70 -40 -75 0 -4 -18 -32 -40 -62 -66 -88 -82 -145 -86 -300 -3
-75 0 -141 5 -150 19 -28 338 -24 378 5 14 10 19 31 21 97 4 94 16 120 26 58
8 -53 36 -108 71 -140 24 -22 35 -25 108 -25 181 0 207 61 207 486 0 165 4
226 15 258 l14 42 -52 57 c-29 31 -59 67 -67 80 -34 52 -185 36 -253 -27 l-40
-38 -8 -109 c-4 -60 -7 -202 -6 -317 l2 -207 -26 5 c-15 4 -49 -3 -80 -15 -64
-24 -124 -26 -132 -5 -7 16 36 103 103 210 86 139 95 166 95 295 0 109 -1 117
-28 158 -43 66 -77 82 -172 81 -44 -1 -89 -4 -100 -6z m562 -194 c8 -23 12
-117 12 -281 1 -203 -2 -255 -15 -287 -17 -43 -40 -59 -48 -33 -8 30 -1 617 7
630 13 20 31 9 44 -29z"/>
<path d="M10365 1158 c-38 -21 -155 -130 -155 -144 0 -7 10 -33 23 -56 21 -41
22 -55 25 -331 3 -242 1 -296 -13 -336 -26 -78 -18 -84 89 -78 50 2 99 8 109
12 23 10 22 53 -3 80 -19 20 -20 37 -20 429 -1 224 -4 414 -7 422 -6 17 -21
17 -48 2z"/>
<path d="M10665 1153 c-88 -3 -132 -8 -137 -16 -12 -19 -10 -505 2 -512 6 -4
39 3 75 14 35 12 70 18 78 15 19 -7 27 -49 27 -149 0 -69 -3 -85 -20 -100 -19
-17 -21 -17 -65 24 -72 66 -115 52 -115 -38 0 -49 42 -132 85 -168 26 -23 36
-25 90 -20 80 7 134 27 156 57 16 21 20 52 25 180 4 85 4 191 -1 234 -6 69
-11 83 -35 108 -25 25 -36 28 -92 28 -35 0 -69 4 -77 9 -8 5 -16 32 -19 63 -6
73 8 85 81 69 86 -20 128 -24 140 -12 7 7 10 46 8 103 -2 99 -12 120 -55 116
-12 -1 -79 -4 -151 -5z"/>
<path d="M17465 981 c-42 -20 -64 -39 -93 -81 l-38 -55 -200 -6 c-109 -4
-1447 -7 -2973 -8 -2003 -1 -2780 -5 -2795 -13 -12 -6 -24 -16 -28 -22 -13
-19 -9 -81 6 -102 14 -19 54 -19 2999 -15 l2985 3 19 -23 c74 -93 116 -128
164 -138 65 -14 1167 -15 1203 -1 28 10 45 55 27 73 -7 7 -172 11 -549 13
-526 2 -540 2 -580 23 -56 29 -66 50 -59 135 6 80 28 140 54 151 24 10 913 27
1023 20 47 -4 93 -3 103 0 25 10 21 42 -7 60 -21 14 -92 16 -615 14 l-591 -1
-55 -27z"/>
<path d="M9020 379 c-22 -28 -43 -62 -46 -76 -9 -36 11 -72 51 -89 49 -20 83
-10 93 30 9 31 1 135 -13 169 -13 31 -43 19 -85 -34z"/>
</g>
</svg>
